# xmcd CD database file
#
# Track frame offsets:
#	150
#	12017
#	24337
#	35760
#
# Disc length: 634 seconds
#
# Revision: 0
# Processed by: cddbd v1.4b41PL2 Copyright (c) Steve Scherf et al.
# Submitted via: Feurio! 1.61 - http://www.feurio.com
#
DISCID=23027804
DTITLE=Elton John - The Very Best Of Elton John
DYEAR=1900
DGENRE=
TTITLE0=Blue Eyes
TTITLE1=Sorry Seems To Be The Hardest Word
TTITLE2=Candle In The Wind
TTITLE3=Song For Guy
EXTD=Anteprima Per Max - Phonogram
EXTT0=
EXTT1=
EXTT2=
EXTT3=
PLAYORDER=
